<svg id="Iconos" xmlns="http://www.w3.org/2000/svg" viewBox="0 0 200 200"><defs><style>.cls-1{fill:#d3ecfb;}.cls-2{fill:#0086cb;}.cls-3{fill:#fff;}</style></defs><title>Mesa de trabajo 4 copia</title><path class="cls-1" d="M149.09,56.36H50.91A10.92,10.92,0,0,0,40,67.27V89.09H160V67.27A10.92,10.92,0,0,0,149.09,56.36ZM138.18,72.73H124.55V67.27h13.63Zm10.91,0h-5.45V67.27h5.45Z"/><path class="cls-2" d="M149.09,50.91H50.91A16.38,16.38,0,0,0,34.55,67.27v30a8.19,8.19,0,0,0,8.18,8.18H157.27a8.19,8.19,0,0,0,8.18-8.18v-30A16.38,16.38,0,0,0,149.09,50.91ZM160,97.27a2.73,2.73,0,0,1-2.73,2.73H42.73A2.73,2.73,0,0,1,40,97.27V94.55H160Zm0-8.18H40V67.27A10.92,10.92,0,0,1,50.91,56.36h98.18A10.92,10.92,0,0,1,160,67.27Z"/><rect class="cls-2" x="124.55" y="67.27" width="13.64" height="5.45"/><rect class="cls-2" x="143.64" y="67.27" width="5.45" height="5.45"/><path class="cls-3" d="M40,97.27A2.73,2.73,0,0,0,42.73,100H157.27A2.73,2.73,0,0,0,160,97.27V94.55H40Z"/><path class="cls-2" d="M78.18,114.1a3.26,3.26,0,0,1-.71,2.09,8.86,8.86,0,0,0,0,11.26,3.23,3.23,0,0,1,.71,2.08v.94a3.25,3.25,0,0,1-.71,2.08,8.86,8.86,0,0,0,0,11.26,3.26,3.26,0,0,1,.71,2.09v3.19h5.46V145.9a8.65,8.65,0,0,0-2-5.63,3.41,3.41,0,0,1,0-4.17,8.69,8.69,0,0,0,2-5.63v-.94a8.69,8.69,0,0,0-2-5.63,3.41,3.41,0,0,1,0-4.17,8.65,8.65,0,0,0,2-5.63v-3.19H78.18Z"/><path class="cls-2" d="M91.82,114.1a3.26,3.26,0,0,1-.71,2.09,8.84,8.84,0,0,0,0,11.26,3.23,3.23,0,0,1,.71,2.08v.94a3.25,3.25,0,0,1-.71,2.08,8.84,8.84,0,0,0,0,11.26,3.26,3.26,0,0,1,.71,2.09v3.19h5.45V145.9a8.64,8.64,0,0,0-2-5.63,3.41,3.41,0,0,1,0-4.17,8.68,8.68,0,0,0,2-5.63v-.94a8.68,8.68,0,0,0-2-5.63,3.41,3.41,0,0,1,0-4.17,8.64,8.64,0,0,0,2-5.63v-3.19H91.82Z"/><path class="cls-2" d="M105.45,114.1a3.2,3.2,0,0,1-.71,2.09,8.86,8.86,0,0,0,0,11.26,3.18,3.18,0,0,1,.71,2.08v.94a3.19,3.19,0,0,1-.71,2.08,8.86,8.86,0,0,0,0,11.26,3.2,3.2,0,0,1,.71,2.09v3.19h5.46V145.9a8.65,8.65,0,0,0-2-5.63,3.41,3.41,0,0,1,0-4.17,8.69,8.69,0,0,0,2-5.63v-.94a8.69,8.69,0,0,0-2-5.63,3.41,3.41,0,0,1,0-4.17,8.65,8.65,0,0,0,2-5.63v-3.19h-5.46Z"/><path class="cls-2" d="M119.09,114.1a3.26,3.26,0,0,1-.71,2.09,8.86,8.86,0,0,0,0,11.26,3.23,3.23,0,0,1,.71,2.08v.94a3.25,3.25,0,0,1-.71,2.08,8.86,8.86,0,0,0,0,11.26,3.26,3.26,0,0,1,.71,2.09v3.19h5.46V145.9a8.65,8.65,0,0,0-2-5.63,3.41,3.41,0,0,1,0-4.17,8.69,8.69,0,0,0,2-5.63v-.94a8.69,8.69,0,0,0-2-5.63,3.41,3.41,0,0,1,0-4.17,8.65,8.65,0,0,0,2-5.63v-3.19h-5.46Z"/></svg>