<svg id="Iconos" xmlns="http://www.w3.org/2000/svg" viewBox="0 0 200 200"><defs><style>.cls-1{fill:#fff;}.cls-2{fill:#d3ecfb;}.cls-3{fill:#0086cb;}</style></defs><title>Mesa de trabajo 4 copia 3</title><path class="cls-1" d="M97.27,132.73V121.82H78.18a5.46,5.46,0,0,1-5.45-5.46V105a30,30,0,0,1-10.91,0v44.14H72.73V138.18a5.45,5.45,0,0,1,5.45-5.45Z"/><path class="cls-1" d="M132.73,105.45a29.73,29.73,0,0,1-5.46-.5v11.41a5.46,5.46,0,0,1-5.45,5.46H102.73v10.91h19.09a5.45,5.45,0,0,1,5.45,5.45v10.91h10.91V105A29.7,29.7,0,0,1,132.73,105.45Z"/><path class="cls-2" d="M67.27,100A24.55,24.55,0,1,0,42.73,75.45,24.57,24.57,0,0,0,67.27,100ZM56.36,72.73h6.2a5.44,5.44,0,0,1,9.43,0H86.36v5.45H72a5.44,5.44,0,0,1-9.43,0h-6.2Z"/><path class="cls-3" d="M67.27,80.91A5.45,5.45,0,0,0,72,78.18H86.36V72.73H72a5.44,5.44,0,0,0-9.43,0h-6.2v5.45h6.2A5.44,5.44,0,0,0,67.27,80.91Z"/><path class="cls-2" d="M132.73,100a24.55,24.55,0,1,0-24.55-24.55A24.57,24.57,0,0,0,132.73,100Zm-5.46-24.55A5.46,5.46,0,0,1,132.73,70a5.57,5.57,0,0,1,1.41.19L144.3,60l3.85,3.85L138,74.05a5.44,5.44,0,0,1-6.67,6.67l-4.38,4.38-3.86-3.86,4.38-4.38A5.45,5.45,0,0,1,127.27,75.45Z"/><path class="cls-3" d="M126.94,85.1l4.38-4.38A5.44,5.44,0,0,0,138,74.05l10.16-10.17L144.3,60,134.14,70.19a5.57,5.57,0,0,0-1.41-.19,5.44,5.44,0,0,0-5.27,6.86l-4.38,4.38Z"/><rect class="cls-2" x="45.45" y="124.55" width="10.91" height="5.45"/><rect class="cls-2" x="143.64" y="124.55" width="10.91" height="5.45"/><path class="cls-1" d="M37.27,110.91a2.72,2.72,0,0,0-2.72,2.73v27.27a2.73,2.73,0,0,0,2.72,2.73H40V110.91Z"/><path class="cls-1" d="M162.73,110.91H160v32.73h2.73a2.73,2.73,0,0,0,2.72-2.73V113.64A2.72,2.72,0,0,0,162.73,110.91Z"/><path class="cls-3" d="M162.73,105.45h-8.19v13.64h-10.9v-15.7a30,30,0,1,0-21.82,0v13H78.18v-13a30,30,0,1,0-21.82,0v15.7H45.45V105.45H37.27a8.19,8.19,0,0,0-8.18,8.19v27.27a8.19,8.19,0,0,0,8.18,8.18h8.18V135.45H56.36v19.1H78.18V138.18h43.64v16.37h21.82v-19.1h10.9v13.64h8.19a8.19,8.19,0,0,0,8.18-8.18V113.64A8.19,8.19,0,0,0,162.73,105.45Zm2.72,35.46a2.73,2.73,0,0,1-2.72,2.73H160V110.91h2.73a2.72,2.72,0,0,1,2.72,2.73Zm-27.27-5.46v13.64H127.27V138.18a5.45,5.45,0,0,0-5.45-5.45H102.73V121.82h19.09a5.46,5.46,0,0,0,5.45-5.46V105a30,30,0,0,0,10.91,0v30.5Zm-65.45,2.73v10.91H61.82V105a30,30,0,0,0,10.91,0v11.41a5.46,5.46,0,0,0,5.45,5.46H97.27v10.91H78.18A5.45,5.45,0,0,0,72.73,138.18ZM40,135.45v8.19H37.27a2.73,2.73,0,0,1-2.72-2.73V113.64a2.72,2.72,0,0,1,2.72-2.73H40v24.54Zm5.45-10.9H56.36V130H45.45ZM67.27,50.91A24.55,24.55,0,1,1,42.73,75.45,24.57,24.57,0,0,1,67.27,50.91Zm65.46,0a24.55,24.55,0,1,1-24.55,24.54A24.57,24.57,0,0,1,132.73,50.91Zm10.91,73.64h10.9V130h-10.9Z"/></svg>