<?xml version="1.0" encoding="utf-8"?>
<!-- Generator: Adobe Illustrator 23.0.4, SVG Export Plug-In . SVG Version: 6.00 Build 0)  -->
<svg version="1.1" id="Iconos" xmlns="http://www.w3.org/2000/svg" xmlns:xlink="http://www.w3.org/1999/xlink" x="0px" y="0px"
	 viewBox="0 0 141.8 109.1" style="enable-background:new 0 0 141.8 109.1;" xml:space="preserve">
<style type="text/css">
	.st0{fill:#FFFFFF;}
	.st1{fill:#D3ECFB;}
	.st2{fill:#175774;}
</style>
<title>Mesa de trabajo 11</title>
<path class="st0" d="M68.2,87.3V76.4H49.1c-3,0-5.5-2.4-5.5-5.4V59.5c-3.6,0.7-7.3,0.7-10.9,0v44.1h10.9V92.7c0-3,2.4-5.5,5.5-5.5
	L68.2,87.3z"/>
<path class="st0" d="M103.6,60c-1.8,0-3.7-0.2-5.5-0.5v11.4c0,3-2.4,5.4-5.4,5.4H73.6v10.9h19.1c3,0,5.5,2.4,5.4,5.5v10.9h10.9V59.5
	C107.3,59.8,105.5,60,103.6,60z"/>
<path class="st1" d="M38.2,54.5c13.6,0,24.6-11,24.6-24.5c0-13.6-11-24.6-24.5-24.6S13.6,16.4,13.6,30c0,0,0,0,0,0
	C13.7,43.5,24.6,54.5,38.2,54.5z M27.3,27.3h6.2c1.5-2.6,4.8-3.5,7.4-2c0.8,0.5,1.5,1.2,2,2h14.4v5.5H42.9c-1.5,2.6-4.8,3.5-7.4,2
	c-0.8-0.5-1.5-1.2-2-2h-6.2V27.3z"/>
<path class="st2" d="M38.2,35.4c1.9,0,3.7-1,4.7-2.7h14.4v-5.5H42.9c-1.5-2.6-4.8-3.5-7.4-2c-0.8,0.5-1.5,1.2-2,2h-6.2v5.5h6.2
	C34.4,34.4,36.2,35.4,38.2,35.4z"/>
<path class="st1" d="M103.6,54.5c13.6,0,24.6-11,24.5-24.6c0-13.6-11-24.5-24.5-24.5c-13.6,0-24.5,11-24.5,24.5
	C79.1,43.6,90.1,54.5,103.6,54.5z M98.2,30c0-3,2.5-5.5,5.5-5.4c0.4,0,0.9,0.1,1.3,0.2l10.2-10.2l3.8,3.9l-10.1,10.2
	c0.1,0.5,0.2,0.9,0.2,1.4c0,3-2.5,5.5-5.5,5.4c-0.5,0-0.9-0.1-1.4-0.2l-4.4,4.4L94,35.8l4.4-4.4C98.3,31,98.2,30.5,98.2,30z"/>
<path class="st2" d="M97.8,39.6l4.4-4.4c2.9,0.8,5.9-0.9,6.7-3.9c0.1-0.5,0.2-0.9,0.2-1.4c0-0.5-0.1-1-0.2-1.4l10.2-10.2l-3.8-3.9
	L105,24.7c-2.9-0.8-5.9,1-6.6,3.9c-0.1,0.4-0.2,0.9-0.2,1.4c0,0.5,0.1,1,0.2,1.4L94,35.8L97.8,39.6z"/>
<rect x="16.4" y="79.1" class="st1" width="10.9" height="5.4"/>
<rect x="114.5" y="79.1" class="st1" width="10.9" height="5.4"/>
<path class="st0" d="M8.2,65.4c-1.5,0-2.7,1.2-2.7,2.7v27.3c0,1.5,1.2,2.7,2.7,2.7c0,0,0,0,0,0h2.7V65.4H8.2z"/>
<path class="st0" d="M133.6,65.4h-2.7v32.7h2.7c1.5,0,2.7-1.2,2.7-2.7c0,0,0,0,0,0V68.2C136.4,66.7,135.1,65.5,133.6,65.4z"/>
<path class="st2" d="M133.6,60h-8.2v13.6h-10.9V57.9c15.4-6,23.1-23.4,17-38.9C125.6,3.7,108.2-4,92.7,2s-23.1,23.4-17,38.9
	c3,7.8,9.2,14,17,17v13H49.1v-13c15.4-6,23.1-23.4,17-38.9C60.1,3.7,42.7-4,27.3,2s-23.1,23.4-17,38.9c3,7.8,9.2,14,17,17v15.7H16.4
	V60H8.2C3.7,60,0,63.7,0,68.2v27.3c0,4.5,3.7,8.2,8.2,8.2h8.2V90h10.9v19.1h21.8V92.7h43.6v16.4h21.8V90h10.9v13.6h8.2
	c4.5,0,8.2-3.7,8.2-8.2V68.2C141.8,63.7,138.2,60,133.6,60z M136.4,95.4c0,1.5-1.2,2.7-2.7,2.7c0,0,0,0,0,0h-2.7V65.4h2.7
	c1.5,0,2.7,1.2,2.7,2.7V95.4z M109.1,90v13.6H98.2V92.7c0-3-2.4-5.5-5.4-5.5H73.6V76.4h19.1c3,0,5.4-2.4,5.4-5.4V59.5
	c3.6,0.7,7.3,0.7,10.9,0V90z M43.6,92.7v10.9H32.7V59.5c3.6,0.7,7.3,0.7,10.9,0v11.4c0,3,2.4,5.4,5.5,5.4h19.1v10.9H49.1
	C46.1,87.3,43.6,89.7,43.6,92.7z M10.9,90v8.2H8.2c-1.5,0-2.7-1.2-2.7-2.7l0,0V68.2c0-1.5,1.2-2.7,2.7-2.7h2.7V90z M16.4,79.1h10.9
	v5.4H16.4V79.1z M38.2,5.4c13.6,0,24.6,11,24.6,24.5c0,13.6-11,24.6-24.5,24.6c-13.6,0-24.6-11-24.6-24.5c0,0,0,0,0,0
	C13.7,16.5,24.6,5.5,38.2,5.4z M103.6,5.4c13.6,0,24.5,11,24.5,24.5s-11,24.6-24.5,24.6S79.1,43.6,79.1,30
	C79.1,16.4,90.1,5.5,103.6,5.4z M114.5,79.1h10.9v5.4h-10.9V79.1z"/>
</svg>
