<svg id="Capa_1" data-name="Capa 1" xmlns="http://www.w3.org/2000/svg" viewBox="0 0 531.74 174.96"><defs><style>.cls-1{fill:#2190be;}.cls-2{fill:#175774;}.cls-3{fill:#1d1d1b;}</style></defs><title>Mesa de trabajo 10</title><path class="cls-1" d="M37.29,22.26c-6.45,0-12.57,5.78-12.57,12.34V92.09c0,6.45,6.23,12.34,12.57,12.34s12.56-5.77,12.56-12.34V82.7H41.47V95.37H33.1V31.32h8.37V44h8.38V34.6C49.85,28,43.74,22.26,37.29,22.26Z"/><path class="cls-1" d="M68.18,22.26A12.92,12.92,0,0,0,55.62,34.6V92.09a11.28,11.28,0,0,0,2.15,6.45,12,12,0,0,0,15.85,4.53,12.94,12.94,0,0,0,7.13-11V34.6a12,12,0,0,0-2-6.45A13.13,13.13,0,0,0,68.18,22.26Zm4.19,73.11H64V31.32h8.37Z"/><path class="cls-1" d="M101.12,22.26A12.92,12.92,0,0,0,88.55,34.6V92.09a11.28,11.28,0,0,0,2.15,6.45,12,12,0,0,0,15.85,4.53,12.94,12.94,0,0,0,7.13-11V34.6a12,12,0,0,0-2-6.45A13.11,13.11,0,0,0,101.12,22.26Zm4.18,73.11H96.93V31.32h8.37Z"/><polygon class="cls-1" points="138.24 78.63 138.24 95.37 129.86 95.37 129.86 22.94 121.49 22.94 121.49 103.75 146.61 103.75 146.61 78.63 138.24 78.63"/><polygon class="cls-2" points="146.95 31.32 155.32 31.32 155.32 103.75 163.7 103.75 163.7 31.32 172.07 31.32 172.07 22.94 146.95 22.94 146.95 31.32"/><path class="cls-2" d="M176.71,31.09V95.6a8.58,8.58,0,0,0,8.15,8.15h17V95.37H185.09V67.53h12.56V59.16H185.09V31.32h16.75V22.94h-17A8.58,8.58,0,0,0,176.71,31.09Z"/><path class="cls-2" d="M220.17,22.26c-6.45,0-12.56,5.78-12.56,12.34V92.09c0,6.45,6.22,12.34,12.56,12.34s12.56-5.77,12.56-12.34V82.7h-8.37V95.37H216V31.32h8.38V44h8.37V34.6C232.73,28,226.62,22.26,220.17,22.26Z"/><polygon class="cls-2" points="255.26 59.16 246.88 59.16 246.88 22.94 238.51 22.94 238.51 103.75 246.88 103.75 246.88 67.53 255.26 67.53 255.26 103.75 263.63 103.75 263.63 22.94 255.26 22.94 255.26 59.16"/><path class="cls-2" d="M288.19,47.28c0,9,.45,18.33,1.13,27.38h-.23c-.67-4.64-1.92-11.65-3.62-20.82l-6.11-30.9h-7.92v80.81h8.37V79.53c0-6-.34-15.17-1.13-27.5h.23c1,7.13,2.26,14.15,3.62,20.82l6.11,30.9h7.92V22.94h-8.37Z"/><path class="cls-2" d="M316.93,22.26A12.92,12.92,0,0,0,304.37,34.6V92.09a11.28,11.28,0,0,0,2.15,6.45,12,12,0,0,0,15.85,4.53,12.94,12.94,0,0,0,7.13-11V34.6a12,12,0,0,0-2-6.45A13.11,13.11,0,0,0,316.93,22.26Zm4.19,73.11h-8.37V31.32h8.37Z"/><polygon class="cls-2" points="354.05 95.37 345.68 95.37 345.68 22.94 337.3 22.94 337.3 103.75 362.43 103.75 362.43 78.63 354.05 78.63 354.05 95.37"/><path class="cls-2" d="M380.76,22.26A12.92,12.92,0,0,0,368.2,34.6V92.09a11.28,11.28,0,0,0,2.15,6.45,12,12,0,0,0,15.84,4.53,12.94,12.94,0,0,0,7.13-11V34.6a12.05,12.05,0,0,0-2-6.45A13.13,13.13,0,0,0,380.76,22.26ZM385,95.37h-8.38V31.32H385Z"/><path class="cls-2" d="M413.69,22.26c-6.45,0-12.56,5.78-12.56,12.34V92.09c0,6.45,6.23,12.34,12.56,12.34s12.57-5.77,12.57-12.34V59.16h-12v8.37h3.62V95.37h-8.37V31.32h8.37V44h8.38V34.6C426.26,28,420.14,22.26,413.69,22.26Z"/><rect class="cls-2" x="434.06" y="22.94" width="8.38" height="80.81"/><path class="cls-2" d="M450.25,31.09V95.6a8.58,8.58,0,0,0,8.14,8.15h17V95.37H458.62V67.53h12.56V59.16H458.62V31.32h16.75V22.94h-17A8.58,8.58,0,0,0,450.25,31.09Z"/><path class="cls-2" d="M506.27,44V34.6c0-6.56-6.11-12.34-12.57-12.34S481.14,28,481.14,34.6V59.39a8.58,8.58,0,0,0,8.15,8.14h8.6V95.37h-8.37V82.7h-8.38v9.39c0,6.45,6.23,12.34,12.56,12.34s12.57-5.77,12.57-12.34V67.31a8.58,8.58,0,0,0-8.15-8.15h-8.6V31.32h8.37V44Z"/><path class="cls-3" d="M26.14,133.19a5.59,5.59,0,0,1,.84-3.12A6.74,6.74,0,0,1,29.11,128a9.8,9.8,0,0,1,2.91-1.2,13.53,13.53,0,0,1,3.2-.39,12.5,12.5,0,0,1,3.56.49,10,10,0,0,1,2.89,1.35,8,8,0,0,1,2.09,2.12A8.18,8.18,0,0,1,45,133.07l-2.52.27a6,6,0,0,0-2.56-3.49,9,9,0,0,0-4.89-1.2,11.34,11.34,0,0,0-2.11.21,7.41,7.41,0,0,0-2,.72,4.64,4.64,0,0,0-1.56,1.36,3.56,3.56,0,0,0-.62,2.13,3.66,3.66,0,0,0,.39,1.74,3.77,3.77,0,0,0,1.05,1.26,6.35,6.35,0,0,0,1.59.9,14.6,14.6,0,0,0,2,.6l3.11.69c.95.21,1.95.48,3,.8a12.13,12.13,0,0,1,2.85,1.3,7,7,0,0,1,2.13,2,5.41,5.41,0,0,1,.84,3.1,6.59,6.59,0,0,1-.8,3.28,7.18,7.18,0,0,1-2.13,2.36,9.36,9.36,0,0,1-3.08,1.42,14.16,14.16,0,0,1-3.65.47,13.8,13.8,0,0,1-4.34-.64,10.26,10.26,0,0,1-3.24-1.75,8.41,8.41,0,0,1-2.11-2.58,9.49,9.49,0,0,1-1-3.1l2.52-.27a7,7,0,0,0,2.78,4.59,9.09,9.09,0,0,0,5.29,1.46,13.33,13.33,0,0,0,2.34-.22,8.39,8.39,0,0,0,2.35-.75,5.16,5.16,0,0,0,1.8-1.47A3.86,3.86,0,0,0,43,145.9a3.75,3.75,0,0,0-.54-2.05A5.21,5.21,0,0,0,41,142.37a9.54,9.54,0,0,0-2.15-1,23,23,0,0,0-2.58-.74L33,139.85a15.85,15.85,0,0,1-2.52-.75,8.1,8.1,0,0,1-2.21-1.26,5.69,5.69,0,0,1-1.55-1.92A5.91,5.91,0,0,1,26.14,133.19Z"/><path class="cls-3" d="M61.34,149.47a7.29,7.29,0,0,1-.87,1.34,5.68,5.68,0,0,1-1.26,1.12,7,7,0,0,1-1.74.8,8.17,8.17,0,0,1-2.33.31,7.29,7.29,0,0,1-2.73-.45,5.36,5.36,0,0,1-1.88-1.26q-1.64-1.79-1.63-5.85V133.57h2.25V145a12.7,12.7,0,0,0,.29,3,4.6,4.6,0,0,0,.87,1.86,3.88,3.88,0,0,0,3.18,1.28,5.28,5.28,0,0,0,2.31-.51,5.75,5.75,0,0,0,1.86-1.39A6.49,6.49,0,0,0,60.9,147a8.53,8.53,0,0,0,.44-2.83V133.57h2.25v19H61.34Z"/><path class="cls-3" d="M81,138.81a4.79,4.79,0,0,0-1.78-2.6,5.61,5.61,0,0,0-3.42-1,8,8,0,0,0-1.53.16,6.12,6.12,0,0,0-1.55.5,3.46,3.46,0,0,0-1.2.93A2.24,2.24,0,0,0,71,138.3a2.48,2.48,0,0,0,1,2.15,6.06,6.06,0,0,0,2.52,1l2.71.51c.8.15,1.59.34,2.36.56a8,8,0,0,1,2.1.91,4.93,4.93,0,0,1,1.51,1.47,4.12,4.12,0,0,1,.58,2.29,5.11,5.11,0,0,1-.6,2.52,5.41,5.41,0,0,1-1.65,1.82,7.69,7.69,0,0,1-2.44,1.11,11.74,11.74,0,0,1-2.95.37,9.79,9.79,0,0,1-2.81-.39,7,7,0,0,1-2.3-1.17,6.57,6.57,0,0,1-1.69-1.9,7,7,0,0,1-.91-2.63l2.32-.31a5.37,5.37,0,0,0,1.88,3.27,5.79,5.79,0,0,0,3.71,1.15,8.91,8.91,0,0,0,1.72-.18,5.93,5.93,0,0,0,1.69-.58A3.73,3.73,0,0,0,81,149.22a2.74,2.74,0,0,0,.5-1.65,2.7,2.7,0,0,0-.35-1.44,2.77,2.77,0,0,0-1-1,5.81,5.81,0,0,0-1.49-.63c-.57-.15-1.17-.29-1.82-.42l-3-.58a9.11,9.11,0,0,1-2-.6,6.8,6.8,0,0,1-1.63-1,4.31,4.31,0,0,1-1.1-1.48,4.51,4.51,0,0,1-.41-2,4.17,4.17,0,0,1,.54-2.11,5,5,0,0,1,1.51-1.63,7.83,7.83,0,0,1,2.33-1.07,10.75,10.75,0,0,1,3-.39,8.71,8.71,0,0,1,2.8.43,7.71,7.71,0,0,1,2.15,1.14,6.12,6.12,0,0,1,1.47,1.67,7,7,0,0,1,.8,2Zm8-10h2.24v4.73H95v1.94H91.19v12q0,.93.06,1.53a1.79,1.79,0,0,0,.31.93,1.34,1.34,0,0,0,.8.45,7.45,7.45,0,0,0,1.51.11H95v2H93.17a11.08,11.08,0,0,1-2.11-.17,2.42,2.42,0,0,1-1.3-.68,2.88,2.88,0,0,1-.64-1.42A12.6,12.6,0,0,1,89,148V135.51H85.73v-1.94H89Z"/><path class="cls-3" d="M98.6,139.12a5.6,5.6,0,0,1,2.23-4.32,8.56,8.56,0,0,1,5.33-1.54,13.62,13.62,0,0,1,3,.31,5.56,5.56,0,0,1,2.23,1.05,4.69,4.69,0,0,1,1.4,2,8.66,8.66,0,0,1,.48,3.1V142c0,.66,0,1.25,0,1.78s0,1,0,1.42v1.2c0,1.11,0,2.16.08,3.14s.1,2,.16,3.06h-2.25l-.16-2.95a6.79,6.79,0,0,1-2.32,2.45,9.41,9.41,0,0,1-7.1.5,5.92,5.92,0,0,1-2.07-1.26,5.11,5.11,0,0,1-1.26-1.88,6.19,6.19,0,0,1-.43-2.33,4.92,4.92,0,0,1,.56-2.38A5.09,5.09,0,0,1,100,143a6.63,6.63,0,0,1,1.58-.77,17.66,17.66,0,0,1,1.87-.53c.64-.14,1.29-.25,2-.34s1.29-.17,1.88-.22l3.8-.39v-1.12a5.39,5.39,0,0,0-.42-2.31,3.27,3.27,0,0,0-1.15-1.33,4.21,4.21,0,0,0-1.64-.62,10.91,10.91,0,0,0-1.9-.16,5.29,5.29,0,0,0-3.69,1.11,4.08,4.08,0,0,0-1.32,2.85Zm12.56,4.73v-1.17l-4.15.43a14.51,14.51,0,0,0-5.12,1.22,3,3,0,0,0-1.62,2.85,3.48,3.48,0,0,0,1.27,2.81,5.13,5.13,0,0,0,3.38,1.07,7.28,7.28,0,0,0,2.4-.39,5.08,5.08,0,0,0,2-1.26,6.24,6.24,0,0,0,1.36-2.25A9.81,9.81,0,0,0,111.16,143.85Z"/><path class="cls-3" d="M120.77,126.83v3.56h-2.25v-3.56Zm0,6.74v19h-2.25v-19Z"/><path class="cls-3" d="M128.84,136.83a6.93,6.93,0,0,1,.89-1.34,6.06,6.06,0,0,1,1.34-1.14,6.87,6.87,0,0,1,1.82-.8,8.91,8.91,0,0,1,2.38-.29,7.79,7.79,0,0,1,3,.53,5,5,0,0,1,2,1.49,8.6,8.6,0,0,1,1.47,5.47v11.82h-2.24V141.33a11.88,11.88,0,0,0-.27-2.77,5,5,0,0,0-.82-1.81,3.41,3.41,0,0,0-1.57-1.16,6.37,6.37,0,0,0-2.19-.35,5.43,5.43,0,0,0-2.33.51,5.34,5.34,0,0,0-1.86,1.41,7,7,0,0,0-1.22,2.17,8.33,8.33,0,0,0-.44,2.81v10.43h-2.25v-19h2.25Z"/><path class="cls-3" d="M146.32,139.12a5.6,5.6,0,0,1,2.23-4.32,8.58,8.58,0,0,1,5.33-1.54,13.62,13.62,0,0,1,3,.31,5.5,5.5,0,0,1,2.23,1.05,4.6,4.6,0,0,1,1.4,2,8.66,8.66,0,0,1,.48,3.1V142c0,.66,0,1.25,0,1.78s0,1,0,1.42v1.2c0,1.11,0,2.16.08,3.14s.1,2,.16,3.06H159l-.16-2.95a6.71,6.71,0,0,1-2.32,2.45,9.41,9.41,0,0,1-7.1.5,6,6,0,0,1-2.07-1.26,5.11,5.11,0,0,1-1.26-1.88,6.19,6.19,0,0,1-.43-2.33,4.82,4.82,0,0,1,.57-2.38,5,5,0,0,1,1.49-1.69,6.52,6.52,0,0,1,1.59-.77,16.83,16.83,0,0,1,1.86-.53c.64-.14,1.3-.25,2-.34s1.28-.17,1.88-.22l3.79-.39v-1.12a5.39,5.39,0,0,0-.42-2.31,3.27,3.27,0,0,0-1.15-1.33,4.15,4.15,0,0,0-1.64-.62,10.91,10.91,0,0,0-1.9-.16,5.3,5.3,0,0,0-3.69,1.11,4,4,0,0,0-1.31,2.85Zm12.56,4.73v-1.17l-4.15.43a14.39,14.39,0,0,0-5.11,1.22,3,3,0,0,0-1.63,2.85,3.46,3.46,0,0,0,1.28,2.81,5.08,5.08,0,0,0,3.37,1.07,7.28,7.28,0,0,0,2.4-.39,5.08,5.08,0,0,0,2-1.26,6.24,6.24,0,0,0,1.36-2.25A9.81,9.81,0,0,0,158.88,143.85Z"/><path class="cls-3" d="M166.25,126.83h2.24v9.92a6.55,6.55,0,0,1,2.74-2.61,8.23,8.23,0,0,1,3.82-.88,7.21,7.21,0,0,1,3.1.68,7.35,7.35,0,0,1,2.5,2,9.47,9.47,0,0,1,1.67,3.12,13.46,13.46,0,0,1,.6,4.17,13,13,0,0,1-.62,4.15,9.11,9.11,0,0,1-1.73,3.08,7.69,7.69,0,0,1-2.62,1.94,7.94,7.94,0,0,1-3.29.68,8.25,8.25,0,0,1-3.57-.82,5.52,5.52,0,0,1-2.6-2.56l-.07,2.91h-2.17Zm8.33,8.41a5.72,5.72,0,0,0-2.23.47,5.79,5.79,0,0,0-2,1.43,7.47,7.47,0,0,0-1.46,2.48,10.37,10.37,0,0,0-.56,3.57,10.48,10.48,0,0,0,.54,3.55,7.51,7.51,0,0,0,1.42,2.46,5.24,5.24,0,0,0,2,1.41,6.14,6.14,0,0,0,2.29.45A5.23,5.23,0,0,0,178.9,149a9.07,9.07,0,0,0,1.65-5.79,9.32,9.32,0,0,0-1.63-5.86A5.22,5.22,0,0,0,174.58,135.24Z"/><path class="cls-3" d="M189.47,152.57h-2.25V126.83h2.25Z"/><path class="cls-3" d="M202.73,153a9.47,9.47,0,0,1-3.8-.72,7.61,7.61,0,0,1-2.81-2,8.9,8.9,0,0,1-1.75-3.14,12.65,12.65,0,0,1-.6-4,11.92,11.92,0,0,1,.68-4.13,9,9,0,0,1,1.88-3.12,8.08,8.08,0,0,1,2.85-2,9.49,9.49,0,0,1,3.62-.68,8.59,8.59,0,0,1,3.71.78,8.1,8.1,0,0,1,2.77,2.13,8.83,8.83,0,0,1,1.66,3.28,12.5,12.5,0,0,1,.43,4.16H196.1a8.86,8.86,0,0,0,.5,3.09A6.91,6.91,0,0,0,198,149a5.79,5.79,0,0,0,2.15,1.48,7.4,7.4,0,0,0,2.73.5,6.46,6.46,0,0,0,3.86-1.13,5.44,5.44,0,0,0,2.11-3.14l2.33.31a7.72,7.72,0,0,1-1.11,2.51,7.38,7.38,0,0,1-1.86,1.88,8.6,8.6,0,0,1-2.5,1.18A10.62,10.62,0,0,1,202.73,153Zm0-17.84a6.49,6.49,0,0,0-4.51,1.67,7,7,0,0,0-2.11,4.81h12.79a7.31,7.31,0,0,0-.41-2.41,6.31,6.31,0,0,0-1.2-2.07,5.91,5.91,0,0,0-4.56-2Z"/><path class="cls-3" d="M245.79,145.05a9.93,9.93,0,0,1-3.64,5.81,11.52,11.52,0,0,1-7.29,2.18,12.16,12.16,0,0,1-5-1,9.93,9.93,0,0,1-3.64-2.74,11.74,11.74,0,0,1-2.23-4.22,19.67,19.67,0,0,1,0-10.9,11.65,11.65,0,0,1,2.28-4.2,10.26,10.26,0,0,1,3.69-2.7,12.29,12.29,0,0,1,5-1,11.19,11.19,0,0,1,7.07,2.14,9.9,9.9,0,0,1,3.63,5.85l-2.52.35a7.88,7.88,0,0,0-1.2-2.77,7.05,7.05,0,0,0-1.92-1.86,8.35,8.35,0,0,0-2.42-1.07,10.73,10.73,0,0,0-2.72-.35,8.81,8.81,0,0,0-3.58.72,8,8,0,0,0-2.87,2.11,9.92,9.92,0,0,0-1.92,3.45,14.7,14.7,0,0,0-.7,4.77,15.18,15.18,0,0,0,.66,4.65,10,10,0,0,0,1.86,3.47,8.12,8.12,0,0,0,2.87,2.17,8.72,8.72,0,0,0,3.68.76,9.85,9.85,0,0,0,3.22-.49,8.23,8.23,0,0,0,2.48-1.3,7.3,7.3,0,0,0,1.73-1.91,7.57,7.57,0,0,0,.94-2.35Z"/><path class="cls-3" d="M248.12,143.15a12.14,12.14,0,0,1,.74-4.44,8.63,8.63,0,0,1,2-3.08,7.65,7.65,0,0,1,2.79-1.78,9.28,9.28,0,0,1,3.27-.59,9.39,9.39,0,0,1,3.26.59,7.64,7.64,0,0,1,2.81,1.78,8.76,8.76,0,0,1,2,3.08,13.87,13.87,0,0,1,0,8.88,8.76,8.76,0,0,1-2,3.08,7.64,7.64,0,0,1-2.81,1.78,9.39,9.39,0,0,1-3.26.59,9.28,9.28,0,0,1-3.27-.59,7.65,7.65,0,0,1-2.79-1.78,8.63,8.63,0,0,1-2-3.08A12.18,12.18,0,0,1,248.12,143.15Zm2.37,0a10.72,10.72,0,0,0,.5,3.49,7.45,7.45,0,0,0,1.36,2.46,5.26,5.26,0,0,0,2,1.47,6.67,6.67,0,0,0,5,0,5.29,5.29,0,0,0,2-1.47,7.26,7.26,0,0,0,1.35-2.46,12.2,12.2,0,0,0,0-7,7.26,7.26,0,0,0-1.35-2.46,5.29,5.29,0,0,0-2-1.47,6.67,6.67,0,0,0-5,0,5.26,5.26,0,0,0-2,1.47,7.45,7.45,0,0,0-1.36,2.46A10.72,10.72,0,0,0,250.49,143.15Z"/><path class="cls-3" d="M268.74,143.15a12.14,12.14,0,0,1,.74-4.44,8.63,8.63,0,0,1,2-3.08,7.65,7.65,0,0,1,2.79-1.78,9.33,9.33,0,0,1,6.53,0,7.64,7.64,0,0,1,2.81,1.78,8.63,8.63,0,0,1,2,3.08,13.69,13.69,0,0,1,0,8.88,8.63,8.63,0,0,1-2,3.08,7.64,7.64,0,0,1-2.81,1.78,9.33,9.33,0,0,1-6.53,0,7.65,7.65,0,0,1-2.79-1.78,8.63,8.63,0,0,1-2-3.08A12.18,12.18,0,0,1,268.74,143.15Zm2.37,0a11,11,0,0,0,.5,3.49A7.45,7.45,0,0,0,273,149.1a5.3,5.3,0,0,0,2,1.47,6.33,6.33,0,0,0,2.52.49,6.44,6.44,0,0,0,2.5-.49,5.33,5.33,0,0,0,2-1.47,7.45,7.45,0,0,0,1.36-2.46,12.43,12.43,0,0,0,0-7A7.45,7.45,0,0,0,282,137.2a5.33,5.33,0,0,0-2-1.47,6.44,6.44,0,0,0-2.5-.49,6.33,6.33,0,0,0-2.52.49,5.3,5.3,0,0,0-2,1.47,7.45,7.45,0,0,0-1.36,2.46A11,11,0,0,0,271.11,143.15Z"/><path class="cls-3" d="M292.82,152.57h-2.25V126.83h2.25Z"/><path class="cls-3" d="M300.88,126.83v3.56h-2.25v-3.56Zm0,6.74v19h-2.25v-19Z"/><path class="cls-3" d="M309,136.83a6.93,6.93,0,0,1,.89-1.34,5.84,5.84,0,0,1,1.34-1.14,6.73,6.73,0,0,1,1.82-.8,8.91,8.91,0,0,1,2.38-.29,7.83,7.83,0,0,1,3,.53,5,5,0,0,1,2,1.49,8.6,8.6,0,0,1,1.47,5.47v11.82h-2.24V141.33a11.31,11.31,0,0,0-.28-2.77,4.8,4.8,0,0,0-.81-1.81,3.41,3.41,0,0,0-1.57-1.16,6.37,6.37,0,0,0-2.19-.35,5.43,5.43,0,0,0-2.33.51,5.34,5.34,0,0,0-1.86,1.41,7,7,0,0,0-1.22,2.17,8.33,8.33,0,0,0-.44,2.81v10.43H306.7v-19H309Z"/><path class="cls-3" d="M339.88,148.77a7,7,0,0,1-2.67,2.64,7.59,7.59,0,0,1-3.65.85,7.46,7.46,0,0,1-3.12-.66,7.18,7.18,0,0,1-2.52-1.9,9.28,9.28,0,0,1-1.68-3,11.79,11.79,0,0,1-.62-4,11.21,11.21,0,0,1,.64-3.91,8.86,8.86,0,0,1,1.76-3,7.81,7.81,0,0,1,2.63-1.9,8.17,8.17,0,0,1,3.3-.66,7.48,7.48,0,0,1,3.37.82,5.76,5.76,0,0,1,2.56,2.56v-3.07h2.25V152.1a8.85,8.85,0,0,1-.6,3.49,5.86,5.86,0,0,1-1.69,2.29,6.24,6.24,0,0,1-2.48,1.28,12,12,0,0,1-3.14.39,9.74,9.74,0,0,1-2.81-.39,7.72,7.72,0,0,1-2.29-1.1,5.81,5.81,0,0,1-1.6-1.75,5.25,5.25,0,0,1-.74-2.31l2.32-.15a4.12,4.12,0,0,0,1.46,2.65,5.5,5.5,0,0,0,3.74,1.11,10.13,10.13,0,0,0,2.21-.23,4.38,4.38,0,0,0,1.74-.82,4,4,0,0,0,1.21-1.63,6.77,6.77,0,0,0,.42-2.59Zm-6,1.51a5.43,5.43,0,0,0,2.17-.46,5.93,5.93,0,0,0,2-1.4,7.16,7.16,0,0,0,1.45-2.34,10.21,10.21,0,0,0,0-6.67,7.14,7.14,0,0,0-1.41-2.35,5.5,5.5,0,0,0-2-1.37,5.71,5.71,0,0,0-2.21-.45,5.47,5.47,0,0,0-2.36.52,5.38,5.38,0,0,0-1.88,1.52,7.16,7.16,0,0,0-1.24,2.36,9.92,9.92,0,0,0-.45,3.08,10,10,0,0,0,.45,3.1,7.38,7.38,0,0,0,1.22,2.39,5.27,5.27,0,0,0,1.86,1.53A5.21,5.21,0,0,0,333.87,150.28Z"/><path class="cls-3" d="M362.44,126.83a27.26,27.26,0,0,1,5.84.6A12.56,12.56,0,0,1,373,129.5a10.09,10.09,0,0,1,3.17,4,17.22,17.22,0,0,1,0,12.48,10.05,10.05,0,0,1-3.17,3.95,12.42,12.42,0,0,1-4.75,2.08,27.26,27.26,0,0,1-5.84.6h-5.19V126.83Zm12.37,12.87A12.4,12.4,0,0,0,373.7,134a8,8,0,0,0-2.88-3.2,10.34,10.34,0,0,0-4-1.39,31.56,31.56,0,0,0-4.44-.31h-2.71v21.24h2.71a31.56,31.56,0,0,0,4.44-.31,10.5,10.5,0,0,0,4-1.39,8,8,0,0,0,2.88-3.2A12.4,12.4,0,0,0,374.81,139.7Z"/><path class="cls-3" d="M380.7,139.12a5.6,5.6,0,0,1,2.23-4.32,8.58,8.58,0,0,1,5.33-1.54,13.71,13.71,0,0,1,3,.31,5.52,5.52,0,0,1,2.22,1.05,4.6,4.6,0,0,1,1.4,2,8.66,8.66,0,0,1,.48,3.1V142c0,.66,0,1.25,0,1.78s0,1,0,1.42v1.2c0,1.11,0,2.16.07,3.14s.11,2,.16,3.06h-2.25l-.15-2.95a6.82,6.82,0,0,1-2.33,2.45,9.41,9.41,0,0,1-7.1.5,6.11,6.11,0,0,1-2.07-1.26,5.11,5.11,0,0,1-1.26-1.88,6.39,6.39,0,0,1-.43-2.33,4.82,4.82,0,0,1,.57-2.38,5,5,0,0,1,1.49-1.69,6.52,6.52,0,0,1,1.59-.77,16.83,16.83,0,0,1,1.86-.53c.64-.14,1.3-.25,2-.34s1.28-.17,1.88-.22l3.8-.39v-1.12a5.38,5.38,0,0,0-.43-2.31,3.25,3.25,0,0,0-1.14-1.33,4.26,4.26,0,0,0-1.65-.62,10.91,10.91,0,0,0-1.9-.16,5.26,5.26,0,0,0-3.68,1.11A4,4,0,0,0,383,139.2Zm12.56,4.73v-1.17l-4.15.43a14.39,14.39,0,0,0-5.11,1.22,3,3,0,0,0-1.63,2.85,3.49,3.49,0,0,0,1.28,2.81,5.1,5.1,0,0,0,3.37,1.07,7.28,7.28,0,0,0,2.4-.39,5.08,5.08,0,0,0,2-1.26,6.24,6.24,0,0,0,1.36-2.25A9.81,9.81,0,0,0,393.26,143.85Z"/><path class="cls-3" d="M401.52,128.84h2.25v4.73h3.84v1.94h-3.84v12q0,.93.06,1.53a1.79,1.79,0,0,0,.31.93,1.28,1.28,0,0,0,.79.45,7.51,7.51,0,0,0,1.51.11h1.17v2h-1.86a11.19,11.19,0,0,1-2.12-.17,2.46,2.46,0,0,1-1.3-.68,2.88,2.88,0,0,1-.64-1.42,13.53,13.53,0,0,1-.17-2.34V135.51H398.3v-1.94h3.22Z"/><path class="cls-3" d="M411.17,139.12a5.6,5.6,0,0,1,2.23-4.32,8.58,8.58,0,0,1,5.33-1.54,13.71,13.71,0,0,1,3,.31,5.52,5.52,0,0,1,2.22,1.05,4.6,4.6,0,0,1,1.4,2,8.65,8.65,0,0,1,.49,3.1V142c0,.66,0,1.25,0,1.78s0,1,0,1.42v1.2c0,1.11,0,2.16.07,3.14s.11,2,.16,3.06h-2.25l-.15-2.95a6.82,6.82,0,0,1-2.33,2.45,8,8,0,0,1-4.27,1,8.07,8.07,0,0,1-2.83-.47,6.11,6.11,0,0,1-2.07-1.26,5.23,5.23,0,0,1-1.26-1.88,6.39,6.39,0,0,1-.42-2.33,4.81,4.81,0,0,1,.56-2.38,5,5,0,0,1,1.49-1.69,6.52,6.52,0,0,1,1.59-.77,16.83,16.83,0,0,1,1.86-.53c.65-.14,1.3-.25,2-.34s1.28-.17,1.88-.22l3.8-.39v-1.12a5.38,5.38,0,0,0-.43-2.31,3.25,3.25,0,0,0-1.14-1.33,4.26,4.26,0,0,0-1.65-.62,10.91,10.91,0,0,0-1.9-.16,5.28,5.28,0,0,0-3.68,1.11,4.08,4.08,0,0,0-1.32,2.85Zm12.56,4.73v-1.17l-4.14.43a14.39,14.39,0,0,0-5.12,1.22,3,3,0,0,0-1.63,2.85,3.49,3.49,0,0,0,1.28,2.81,5.1,5.1,0,0,0,3.37,1.07,7.28,7.28,0,0,0,2.4-.39,5.08,5.08,0,0,0,2-1.26,6.24,6.24,0,0,0,1.36-2.25A9.81,9.81,0,0,0,423.73,143.85Z"/><path class="cls-3" d="M431.1,126.83h2.25v9.92a6.47,6.47,0,0,1,2.73-2.61,8.23,8.23,0,0,1,3.82-.88,7.13,7.13,0,0,1,5.6,2.64,9.29,9.29,0,0,1,1.67,3.12,13.46,13.46,0,0,1,.6,4.17,13,13,0,0,1-.62,4.15,9.11,9.11,0,0,1-1.73,3.08,7.65,7.65,0,0,1-2.61,1.94,8,8,0,0,1-3.3.68,8.25,8.25,0,0,1-3.57-.82,5.5,5.5,0,0,1-2.59-2.56l-.08,2.91H431.1Zm8.33,8.41a5.72,5.72,0,0,0-2.23.47,5.79,5.79,0,0,0-2,1.43,7.47,7.47,0,0,0-1.46,2.48,10.37,10.37,0,0,0-.56,3.57,10.48,10.48,0,0,0,.54,3.55,7.69,7.69,0,0,0,1.42,2.46,5.27,5.27,0,0,0,2,1.41,6.09,6.09,0,0,0,2.28.45,5.25,5.25,0,0,0,4.33-2.08,9.13,9.13,0,0,0,1.64-5.79,9.39,9.39,0,0,0-1.62-5.86A5.25,5.25,0,0,0,439.43,135.24Z"/><path class="cls-3" d="M451.37,139.12a5.63,5.63,0,0,1,2.23-4.32,8.6,8.6,0,0,1,5.33-1.54,13.71,13.71,0,0,1,3,.31,5.56,5.56,0,0,1,2.23,1.05,4.67,4.67,0,0,1,1.39,2,8.65,8.65,0,0,1,.49,3.1V142c0,.66,0,1.25,0,1.78s0,1,0,1.42v1.2c0,1.11,0,2.16.07,3.14s.11,2,.16,3.06H464l-.15-2.95a6.82,6.82,0,0,1-2.33,2.45,9.38,9.38,0,0,1-7.09.5,6.06,6.06,0,0,1-2.08-1.26,5.37,5.37,0,0,1-1.26-1.88,6.39,6.39,0,0,1-.42-2.33,4.81,4.81,0,0,1,.56-2.38,5,5,0,0,1,1.49-1.69,6.9,6.9,0,0,1,1.59-.77,16.83,16.83,0,0,1,1.86-.53c.65-.14,1.3-.25,2-.34s1.28-.17,1.88-.22l3.8-.39v-1.12a5.23,5.23,0,0,0-.43-2.31,3.18,3.18,0,0,0-1.14-1.33,4.26,4.26,0,0,0-1.65-.62,10.83,10.83,0,0,0-1.9-.16,5.28,5.28,0,0,0-3.68,1.11,4.08,4.08,0,0,0-1.32,2.85Zm12.56,4.73v-1.17l-4.14.43a14.39,14.39,0,0,0-5.12,1.22,3,3,0,0,0-1.63,2.85,3.49,3.49,0,0,0,1.28,2.81,5.1,5.1,0,0,0,3.37,1.07,7.29,7.29,0,0,0,2.41-.39,5,5,0,0,0,2-1.26,6.24,6.24,0,0,0,1.36-2.25A9.57,9.57,0,0,0,463.93,143.85Z"/><path class="cls-3" d="M482.58,138.81a4.74,4.74,0,0,0-1.78-2.6,5.6,5.6,0,0,0-3.41-1,8,8,0,0,0-1.54.16,6.12,6.12,0,0,0-1.55.5,3.66,3.66,0,0,0-1.2.93,2.24,2.24,0,0,0-.48,1.47,2.48,2.48,0,0,0,1,2.15,6.06,6.06,0,0,0,2.52,1l2.71.51c.8.15,1.59.34,2.37.56a8.06,8.06,0,0,1,2.09.91,4.93,4.93,0,0,1,1.51,1.47,4.12,4.12,0,0,1,.58,2.29,5.11,5.11,0,0,1-.6,2.52,5.41,5.41,0,0,1-1.65,1.82,7.59,7.59,0,0,1-2.44,1.11,11.72,11.72,0,0,1-2.94.37,9.81,9.81,0,0,1-2.82-.39,7,7,0,0,1-2.3-1.17,6.71,6.71,0,0,1-1.69-1.9A7.18,7.18,0,0,1,470,147l2.33-.31a5.28,5.28,0,0,0,1.88,3.27,5.76,5.76,0,0,0,3.7,1.15,8.83,8.83,0,0,0,1.72-.18,5.93,5.93,0,0,0,1.69-.58,3.73,3.73,0,0,0,1.28-1.08,3,3,0,0,0,.15-3.09,2.82,2.82,0,0,0-1-1,6,6,0,0,0-1.5-.63c-.56-.15-1.17-.29-1.82-.42l-3-.58a9.11,9.11,0,0,1-2-.6,6.8,6.8,0,0,1-1.63-1,4.31,4.31,0,0,1-1.1-1.48,4.65,4.65,0,0,1-.41-2,4.17,4.17,0,0,1,.54-2.11,4.91,4.91,0,0,1,1.52-1.63,7.77,7.77,0,0,1,2.32-1.07,10.82,10.82,0,0,1,3-.39,8.69,8.69,0,0,1,2.79.43,7.71,7.71,0,0,1,2.15,1.14,6,6,0,0,1,1.47,1.67,6.76,6.76,0,0,1,.8,2Z"/><path class="cls-3" d="M497.58,153a9.54,9.54,0,0,1-3.8-.72,7.78,7.78,0,0,1-2.81-2,9,9,0,0,1-1.74-3.14,12.65,12.65,0,0,1-.6-4,11.69,11.69,0,0,1,.68-4.13,9,9,0,0,1,1.88-3.12,8.08,8.08,0,0,1,2.85-2,9.45,9.45,0,0,1,3.62-.68,8.51,8.51,0,0,1,3.7.78,8,8,0,0,1,2.78,2.13,8.83,8.83,0,0,1,1.66,3.28,12.77,12.77,0,0,1,.43,4.16H491a8.86,8.86,0,0,0,.51,3.09,6.89,6.89,0,0,0,1.39,2.34,5.91,5.91,0,0,0,2.16,1.48,7.4,7.4,0,0,0,2.73.5,6.48,6.48,0,0,0,3.86-1.13,5.44,5.44,0,0,0,2.11-3.14l2.33.31a7.93,7.93,0,0,1-1.11,2.51,7.38,7.38,0,0,1-1.86,1.88,8.6,8.6,0,0,1-2.5,1.18A10.69,10.69,0,0,1,497.58,153Zm0-17.84a6.47,6.47,0,0,0-4.51,1.67,7,7,0,0,0-2.12,4.81h12.8a7.31,7.31,0,0,0-.41-2.41,6.31,6.31,0,0,0-1.2-2.07,5.85,5.85,0,0,0-1.94-1.45A5.93,5.93,0,0,0,497.62,135.2Z"/></svg>