<svg id="Iconos" xmlns="http://www.w3.org/2000/svg" viewBox="0 0 200 200"><defs><style>.cls-1{fill:#d3ecfb;}.cls-2{fill:#0086cb;}.cls-3{fill:#fff;}</style></defs><title>Mesa de trabajo 4 copia 2</title><path class="cls-1" d="M154.54,71.36h-2.72a19.09,19.09,0,0,1-8.4,15.81,19.51,19.51,0,0,1-3.61,1.92,19.2,19.2,0,0,1-4.36,1.17v-.54A5.47,5.47,0,0,0,138.18,85a5.68,5.68,0,0,0-.11-1.09,5.6,5.6,0,0,0-1-2.18l-4.36-5.82-4.37,5.82a5.44,5.44,0,0,0-1,2.18,5,5,0,0,0-.12,1.09A5.47,5.47,0,0,0,130,89.72v.54a19.12,19.12,0,0,1-4.35-1.17,19.14,19.14,0,0,1-12-17.73H45.46A5.47,5.47,0,0,0,40,76.82v70.91a5.46,5.46,0,0,0,5.46,5.45H154.54a5.46,5.46,0,0,0,5.46-5.45V76.82A5.47,5.47,0,0,0,154.54,71.36ZM80.91,147.73a35.46,35.46,0,1,1,35.45-35.46A35.5,35.5,0,0,1,80.91,147.73Zm57.27-5.46H124.55v-5.45h13.63Zm10.91,0h-5.45v-5.45h5.45Zm0-10.91H124.55v-5.45h24.54Z"/><path class="cls-2" d="M154.54,65.91H151a19.12,19.12,0,0,0-3-6L144.32,55H140l-5.46-13.64h-3.21L117.45,59.91a19.12,19.12,0,0,0-3,6h-69A10.92,10.92,0,0,0,34.55,76.82v70.91a10.92,10.92,0,0,0,10.91,10.91H154.54a10.92,10.92,0,0,0,10.91-10.91V76.82A10.92,10.92,0,0,0,154.54,65.91ZM160,147.73a5.46,5.46,0,0,1-5.46,5.45H45.46A5.46,5.46,0,0,1,40,147.73V76.82a5.47,5.47,0,0,1,5.46-5.46h68.18A19.12,19.12,0,0,0,130,90.26v-.54A5.47,5.47,0,0,1,127.27,85a5,5,0,0,1,.12-1.09,5.44,5.44,0,0,1,1-2.18l4.37-5.82,4.36,5.82a5.6,5.6,0,0,1,1,2.18,5.68,5.68,0,0,1,.11,1.09,5.47,5.47,0,0,1-2.73,4.72v.54a19.2,19.2,0,0,0,4.36-1.17,19.51,19.51,0,0,0,3.61-1.92,19.09,19.09,0,0,0,8.4-15.81h2.72A5.47,5.47,0,0,1,160,76.82ZM121.82,63.18,132,49.61l4.33,10.84h5.26l2,2.72a13.78,13.78,0,0,1,2.72,8.18,13.57,13.57,0,0,1-3.64,9.27,11.08,11.08,0,0,0-1.27-2.18l-8.72-11.63L124,78.45a10.56,10.56,0,0,0-1.26,2.18,13.58,13.58,0,0,1-3.65-9.27A13.72,13.72,0,0,1,121.82,63.18Z"/><path class="cls-3" d="M80.91,82.27a30,30,0,1,0,30,30A30,30,0,0,0,80.91,82.27Zm18.25,48.3a10.82,10.82,0,0,1-9.53-.67l-.06,0a22.17,22.17,0,0,1-8.66-9.07,22.07,22.07,0,0,1-8.67,9.07,11.14,11.14,0,0,1-5.57,1.51A10.68,10.68,0,0,1,59,128.12,10.93,10.93,0,0,1,61.28,111l0,0a22.22,22.22,0,0,1,12.2-3A22.2,22.2,0,0,1,70,96a10.86,10.86,0,0,1,8.16-10.63,11,11,0,0,1,9.47,2,10.87,10.87,0,0,1,4.19,8.6V96a22.2,22.2,0,0,1-3.52,12,22.19,22.19,0,0,1,12.19,3,10.9,10.9,0,0,1-1.33,19.59Z"/><path class="cls-2" d="M80.91,76.82a35.46,35.46,0,1,0,35.45,35.45A35.49,35.49,0,0,0,80.91,76.82Zm0,65.45a30,30,0,1,1,30-30A30,30,0,0,1,80.91,142.27Z"/><rect class="cls-2" x="124.55" y="125.91" width="24.55" height="5.45"/><rect class="cls-2" x="124.55" y="136.82" width="13.64" height="5.45"/><rect class="cls-2" x="143.64" y="136.82" width="5.45" height="5.45"/><path class="cls-1" d="M80.91,104.09a8.11,8.11,0,0,1,3,.59A16.79,16.79,0,0,0,86.36,96v-.06a5.45,5.45,0,0,0-5.44-5.46,6.06,6.06,0,0,0-1.45.18,5.5,5.5,0,0,0-4,5.34,16.8,16.8,0,0,0,2.42,8.71A8.11,8.11,0,0,1,80.91,104.09Z"/><path class="cls-1" d="M75.86,118.69a8.18,8.18,0,0,1-3-5.25h-.34a16.81,16.81,0,0,0-8.42,2.27l0,0a5.45,5.45,0,1,0,5.5,9.42A16.76,16.76,0,0,0,75.86,118.69Z"/><path class="cls-1" d="M100.37,121.85a5.49,5.49,0,0,0-2.61-6.15A16.74,16.74,0,0,0,89,113.44a8.2,8.2,0,0,1-3,5.25,16.81,16.81,0,0,0,6.34,6.46l.06,0a5.48,5.48,0,0,0,8-3.33Z"/><path class="cls-2" d="M100.49,111a22.19,22.19,0,0,0-12.19-3,22.2,22.2,0,0,0,3.52-12v-.06a10.87,10.87,0,0,0-4.19-8.6,11,11,0,0,0-9.47-2A10.86,10.86,0,0,0,70,96a22.2,22.2,0,0,0,3.52,12,22.22,22.22,0,0,0-12.2,3l0,0A10.93,10.93,0,0,0,59,128.12a10.68,10.68,0,0,0,7.71,3.26,11.14,11.14,0,0,0,5.57-1.51,22.07,22.07,0,0,0,8.67-9.07,22.17,22.17,0,0,0,8.66,9.07l.06,0a10.82,10.82,0,0,0,9.53.67A10.9,10.9,0,0,0,100.49,111Zm-8.13,14.2-.06,0A16.81,16.81,0,0,1,86,118.69a8.2,8.2,0,0,0,3-5.25,16.74,16.74,0,0,1,8.76,2.26,5.44,5.44,0,0,1-.64,9.81A5.43,5.43,0,0,1,92.36,125.18Zm-29.47-.85a5.47,5.47,0,0,1,1.12-8.6l0,0a16.81,16.81,0,0,1,8.42-2.27h.34a8.18,8.18,0,0,0,3,5.25,16.76,16.76,0,0,1-6.35,6.46A5.46,5.46,0,0,1,62.89,124.33Zm16.58-33.7a6.06,6.06,0,0,1,1.45-.18,5.45,5.45,0,0,1,5.44,5.46V96A16.79,16.79,0,0,1,84,104.68a8.13,8.13,0,0,0-6.08,0A16.8,16.8,0,0,1,75.45,96,5.5,5.5,0,0,1,79.47,90.63Zm-1.29,21.64A2.73,2.73,0,1,1,80.91,115,2.73,2.73,0,0,1,78.18,112.27Z"/><circle class="cls-3" cx="80.91" cy="112.27" r="2.73"/><path class="cls-3" d="M119.09,71.36a13.58,13.58,0,0,0,3.65,9.27A10.56,10.56,0,0,1,124,78.45l8.73-11.63,8.72,11.63a11.08,11.08,0,0,1,1.27,2.18,13.57,13.57,0,0,0,3.64-9.27,13.78,13.78,0,0,0-2.72-8.18l-2-2.72h-5.26L132,49.61,121.82,63.18A13.72,13.72,0,0,0,119.09,71.36Z"/></svg>