<?xml version="1.0" encoding="utf-8"?>
<!-- Generator: Adobe Illustrator 23.0.4, SVG Export Plug-In . SVG Version: 6.00 Build 0)  -->
<svg version="1.1" id="Iconos" xmlns="http://www.w3.org/2000/svg" xmlns:xlink="http://www.w3.org/1999/xlink" x="0px" y="0px"
	 viewBox="0 0 130.9 117.3" style="enable-background:new 0 0 130.9 117.3;" xml:space="preserve">
<style type="text/css">
	.st0{fill:#D3ECFB;}
	.st1{fill:#12316A;}
	.st2{fill:#FFFFFF;}
</style>
<title>Mesa de trabajo 10</title>
<path class="st0" d="M120,30h-2.7c0,6.3-3.1,12.3-8.4,15.8c-2.4,1.6-5.1,2.7-8,3.1v-0.5c1.1-0.6,1.9-1.6,2.4-2.8
	c0.2-0.6,0.4-1.3,0.3-1.9c0-0.4,0-0.7-0.1-1.1c-0.2-0.8-0.5-1.5-1-2.2l-4.4-5.8l-4.4,5.8c-0.5,0.6-0.8,1.4-1,2.2
	c-0.1,0.4-0.1,0.7-0.1,1.1c0,0.7,0.1,1.3,0.3,1.9c0.4,1.2,1.3,2.2,2.4,2.8v0.5c-2.9-0.4-5.6-1.5-8-3.1c-5.2-3.6-8.3-9.5-8.3-15.8
	H10.9c-3,0-5.5,2.4-5.5,5.5v70.9c0,3,2.4,5.5,5.5,5.5H120c3,0,5.5-2.4,5.4-5.5V35.4C125.4,32.4,123,30,120,30z M46.4,106.4
	c-19.6,0-35.5-15.9-35.5-35.5s15.9-35.5,35.5-35.5s35.5,15.9,35.5,35.5c0,0,0,0,0,0C81.8,90.5,65.9,106.3,46.4,106.4z M103.6,100.9
	H90v-5.5h13.6L103.6,100.9z M114.5,100.9h-5.4v-5.5h5.4V100.9z M114.5,90H90v-5.5h24.5L114.5,90z"/>
<path class="st1" d="M120,24.5h-3.5c-0.6-2.2-1.7-4.2-3-6l-3.7-4.9h-4.3L100,0h-3.2L82.9,18.5c-1.3,1.8-2.4,3.8-3,6h-69
	C4.9,24.5,0,29.4,0,35.4v70.9c0,6,4.9,10.9,10.9,10.9H120c6,0,10.9-4.9,10.9-10.9V35.4C130.9,29.4,126,24.6,120,24.5z M125.4,106.4
	c0,3-2.4,5.5-5.4,5.5H10.9c-3,0-5.5-2.4-5.5-5.5V35.4c0-3,2.4-5.5,5.5-5.5h68.2c0,6.3,3.1,12.3,8.4,15.8c2.4,1.6,5.1,2.7,8,3.1v-0.5
	c-1.1-0.6-1.9-1.6-2.4-2.8c-0.2-0.6-0.4-1.3-0.3-1.9c0-0.4,0-0.7,0.1-1.1c0.2-0.8,0.5-1.5,1-2.2l4.4-5.8l4.4,5.8
	c0.5,0.6,0.8,1.4,1,2.2c0.1,0.4,0.1,0.7,0.1,1.1c0,0.7-0.1,1.3-0.3,1.9c-0.4,1.2-1.3,2.2-2.4,2.8v0.5c2.9-0.4,5.6-1.5,8-3.1
	c5.2-3.6,8.3-9.5,8.3-15.8h2.7c3,0,5.4,2.4,5.4,5.5V106.4z M87.3,21.8L97.4,8.2l4.3,10.8h5.2l2,2.7c4,5.3,3.6,12.6-0.9,17.5
	c-0.3-0.8-0.8-1.5-1.3-2.2l-8.6-11.6l-8.7,11.6c-0.5,0.7-0.9,1.4-1.3,2.2C83.7,34.4,83.3,27.1,87.3,21.8z"/>
<path class="st2" d="M46.4,40.9c-16.6,0-30,13.4-30,30s13.4,30,30,30s30-13.4,30-30S62.9,40.9,46.4,40.9L46.4,40.9z M64.6,89.2
	c-1.3,0.5-2.7,0.8-4.1,0.8c-1.9,0-3.8-0.5-5.4-1.5H55c-3.7-2.1-6.7-5.3-8.7-9.1c-2,3.8-5,6.9-8.7,9.1c-1.7,1-3.6,1.5-5.6,1.4
	c-2.9,0-5.7-1.2-7.7-3.3c-2.4-2.4-3.5-5.8-3-9.2c0.5-3.3,2.4-6.3,5.3-7.9h0c3.7-2.2,7.9-3.2,12.2-3c-2.3-3.6-3.5-7.7-3.5-12
	c0-6,4.9-10.9,10.9-10.9c6,0,10.9,4.9,10.9,10.9l0,0v0.1c0,4.3-1.2,8.4-3.5,12c4.3-0.2,8.5,0.9,12.2,3c4.3,2.5,6.4,7.6,5.1,12.4
	C70.1,85.3,67.8,87.9,64.6,89.2z"/>
<path class="st1" d="M46.4,35.4c-19.6,0-35.5,15.9-35.5,35.5s15.9,35.5,35.5,35.5s35.5-15.9,35.5-35.5
	C81.8,51.3,65.9,35.5,46.4,35.4z M46.4,100.9c-16.6,0-30-13.4-30-30s13.4-30,30-30s30,13.4,30,30S62.9,100.9,46.4,100.9z"/>
<rect x="90" y="84.5" class="st1" width="24.6" height="5.4"/>
<rect x="90" y="95.4" class="st1" width="13.6" height="5.4"/>
<rect x="109.1" y="95.4" class="st1" width="5.4" height="5.4"/>
<path class="st0" d="M46.4,62.7c1,0,2,0.2,3,0.6c1.6-2.6,2.4-5.6,2.4-8.7v-0.1c0-1.7-0.8-3.3-2.1-4.3c-1-0.8-2.1-1.2-3.3-1.2
	c-0.5,0-1,0.1-1.4,0.2c-2.4,0.7-4,2.9-4,5.3c0,3.1,0.8,6.1,2.4,8.7C44.3,62.9,45.3,62.7,46.4,62.7z"/>
<path class="st0" d="M41.3,77.3c-1.6-1.3-2.7-3.2-3-5.2H38c-3,0-5.9,0.8-8.4,2.3h0c-1.5,0.8-2.5,2.3-2.7,4c-0.4,3,1.7,5.7,4.7,6.1
	c1.2,0.2,2.5-0.1,3.5-0.7C37.7,82.2,39.8,80,41.3,77.3z"/>
<path class="st0" d="M65.8,80.5c0.6-2.4-0.4-4.9-2.6-6.2c-2.7-1.5-5.7-2.3-8.8-2.3c-0.3,2.1-1.4,4-3,5.3c1.5,2.7,3.7,4.9,6.3,6.5h0
	c1.5,0.8,3.2,1,4.8,0.3C64.2,83.5,65.4,82.1,65.8,80.5z"/>
<path class="st1" d="M65.9,69.6c-3.7-2.1-7.9-3.2-12.2-3c2.3-3.6,3.5-7.7,3.5-12v-0.1c0-6-4.9-10.9-10.9-10.9
	c-6,0-10.9,4.9-10.9,10.9c0,4.3,1.2,8.4,3.5,12c-4.3-0.2-8.5,0.8-12.2,3h0c-2.9,1.7-4.9,4.6-5.3,7.9c-0.5,3.4,0.6,6.7,3,9.2
	c2,2.1,4.8,3.3,7.7,3.3c2,0,3.9-0.5,5.6-1.5c3.7-2.1,6.7-5.3,8.7-9.1c1.9,3.8,4.9,6.9,8.6,9.1h0.1c1.7,1,3.5,1.5,5.5,1.5
	c4.9,0,9.2-3.3,10.5-8C72.4,77.2,70.3,72.1,65.9,69.6z M57.8,83.8L57.8,83.8c-2.7-1.5-4.9-3.8-6.4-6.5c1.6-1.3,2.7-3.2,3-5.3
	c3.1-0.1,6.1,0.7,8.8,2.3c2.2,1.2,3.2,3.7,2.6,6.2c-0.5,1.7-1.7,3-3.2,3.7C61,84.8,59.2,84.7,57.8,83.8z M28.3,83
	c-1.2-1.2-1.8-2.9-1.5-4.6c0.2-1.7,1.2-3.2,2.7-4h0c2.6-1.5,5.5-2.3,8.4-2.3h0.3c0.3,2.1,1.4,3.9,3,5.2c-1.5,2.7-3.6,4.9-6.3,6.4
	C32.9,85.1,30.1,84.7,28.3,83z M44.9,49.3c0.5-0.1,1-0.2,1.4-0.2c1.2,0,2.4,0.4,3.3,1.2c1.3,1,2.1,2.6,2.1,4.3v0.1
	c0,3.1-0.8,6.1-2.4,8.7c-1.9-0.8-4.1-0.8-6.1,0c-1.6-2.6-2.4-5.6-2.4-8.7C40.9,52.1,42.5,49.9,44.9,49.3L44.9,49.3z M43.6,70.9
	c0-1.5,1.2-2.7,2.7-2.7c1.5,0,2.7,1.2,2.7,2.7s-1.2,2.7-2.7,2.7c0,0,0,0,0,0C44.9,73.6,43.6,72.4,43.6,70.9
	C43.6,70.9,43.6,70.9,43.6,70.9z"/>
<circle class="st2" cx="46.4" cy="70.9" r="2.7"/>
<path class="st2" d="M84.5,30c0,3.4,1.3,6.8,3.7,9.3c0.3-0.8,0.8-1.5,1.3-2.2l8.7-11.6l8.7,11.6c0.5,0.7,0.9,1.4,1.3,2.2
	c4.5-4.8,4.9-12.2,0.9-17.5l-2-2.7h-5.2L97.4,8.2L87.3,21.8C85.5,24.2,84.5,27.1,84.5,30z"/>
</svg>
