<?xml version="1.0" encoding="utf-8"?>
<!-- Generator: Adobe Illustrator 23.0.4, SVG Export Plug-In . SVG Version: 6.00 Build 0)  -->
<svg version="1.1" id="Iconos" xmlns="http://www.w3.org/2000/svg" xmlns:xlink="http://www.w3.org/1999/xlink" x="0px" y="0px"
	 viewBox="0 0 130.9 98.2" style="enable-background:new 0 0 130.9 98.2;" xml:space="preserve">
<style type="text/css">
	.st0{fill:#D3ECFB;}
	.st1{fill:#2290BE;}
	.st2{fill:#FFFFFF;}
</style>
<title>Mesa de trabajo 9</title>
<path class="st0" d="M114.5,5.4H16.4c-6,0-10.9,4.9-10.9,10.9v21.8h120V16.4C125.4,10.3,120.6,5.5,114.5,5.4z M103.6,21.8H90v-5.5
	h13.6V21.8z M114.5,21.8h-5.4v-5.5h5.4V21.8z"/>
<path class="st1" d="M114.5,0H16.4C7.3,0,0,7.3,0,16.4v30c0,4.5,3.7,8.2,8.2,8.2h114.6c4.5,0,8.2-3.7,8.2-8.2v-30
	C130.9,7.3,123.6,0,114.5,0z M125.4,46.4c0,1.5-1.2,2.7-2.7,2.7c0,0,0,0,0,0H8.2c-1.5,0-2.7-1.2-2.7-2.7v-2.7h120V46.4z M125.4,38.2
	H5.4V16.4c0-6,4.9-10.9,10.9-10.9h98.2c6,0,10.9,4.9,10.9,10.9V38.2z"/>
<rect x="90" y="16.4" class="st1" width="13.6" height="5.5"/>
<rect x="109.1" y="16.4" class="st1" width="5.4" height="5.5"/>
<path class="st2" d="M5.4,46.4c0,1.5,1.2,2.7,2.7,2.7l0,0h114.6c1.5,0,2.7-1.2,2.7-2.7c0,0,0,0,0,0v-2.7H5.4V46.4z"/>
<path class="st1" d="M43.6,63.2c0,0.8-0.2,1.5-0.7,2.1c-2.7,3.3-2.7,8,0,11.3c0.5,0.6,0.7,1.3,0.7,2.1v0.9c0,0.8-0.2,1.5-0.7,2.1
	c-2.7,3.3-2.7,8,0,11.3c0.5,0.6,0.7,1.3,0.7,2.1v3.2h5.5V95c0-2.1-0.7-4.1-2-5.6c-0.9-1.2-0.9-2.9,0-4.2c1.3-1.6,2-3.6,2-5.6v-0.9
	c0-2.1-0.7-4-2-5.6c-0.9-1.2-0.9-2.9,0-4.2c1.3-1.6,2-3.6,2-5.6V60h-5.5V63.2z"/>
<path class="st1" d="M57.3,63.2c0,0.8-0.2,1.5-0.7,2.1c-2.7,3.3-2.7,8,0,11.3c0.5,0.6,0.7,1.3,0.7,2.1v0.9c0,0.8-0.2,1.5-0.7,2.1
	c-2.7,3.3-2.7,8,0,11.3c0.5,0.6,0.7,1.3,0.7,2.1v3.2h5.5V95c0-2.1-0.7-4.1-2-5.6c-0.9-1.2-0.9-2.9,0-4.2c1.3-1.6,2-3.6,2-5.6v-0.9
	c0-2.1-0.7-4-2-5.6c-0.9-1.2-0.9-2.9,0-4.2c1.3-1.6,2-3.6,2-5.6V60h-5.5V63.2z"/>
<path class="st1" d="M70.9,63.2c0,0.8-0.2,1.5-0.7,2.1c-2.7,3.3-2.7,8,0,11.3c0.5,0.6,0.7,1.3,0.7,2.1v0.9c0,0.8-0.2,1.5-0.7,2.1
	c-2.7,3.3-2.7,8,0,11.3c0.5,0.6,0.7,1.3,0.7,2.1v3.2h5.4V95c0-2.1-0.7-4.1-2-5.6c-0.9-1.2-0.9-2.9,0-4.2c1.3-1.6,2-3.6,2-5.6v-0.9
	c0-2.1-0.7-4-2-5.6c-0.9-1.2-0.9-2.9,0-4.2c1.3-1.6,2-3.6,2-5.6V60h-5.4V63.2z"/>
<path class="st1" d="M84.5,63.2c0,0.8-0.2,1.5-0.7,2.1c-2.7,3.3-2.7,8,0,11.3c0.5,0.6,0.7,1.3,0.7,2.1v0.9c0,0.8-0.2,1.5-0.7,2.1
	c-2.7,3.3-2.7,8,0,11.3c0.5,0.6,0.7,1.3,0.7,2.1v3.2H90V95c0-2.1-0.7-4.1-2-5.6c-0.9-1.2-0.9-2.9,0-4.2c1.3-1.6,2-3.6,2-5.6v-0.9
	c0-2.1-0.7-4-2-5.6c-0.9-1.2-0.9-2.9,0-4.2c1.3-1.6,2-3.6,2-5.6V60h-5.5V63.2z"/>
</svg>
