<svg id="Iconos" xmlns="http://www.w3.org/2000/svg" viewBox="0 0 200 200"><defs><style>.cls-1{fill:#d3ecfb;}.cls-2{fill:#0086cb;}.cls-3{fill:#fff;}</style></defs><title>Mesa de trabajo 4</title><path class="cls-1" d="M144.52,118.92l-1.36-.79V53.64a8.18,8.18,0,1,0-16.36,0v64.49l-1.36.79a19.09,19.09,0,1,0,19.08,0ZM135,149.09a13.64,13.64,0,0,1-2.73-27V83.64h5.46v38.45a13.64,13.64,0,0,1-2.73,27Z"/><path class="cls-2" d="M148.61,115.05V53.64a13.64,13.64,0,1,0-27.27,0v61.41a24.55,24.55,0,0,0,11.86,44.89c.6,0,1.21.06,1.8.06a24.28,24.28,0,0,0,16.71-6.59,24.54,24.54,0,0,0-3.1-38.36ZM148,149.42a19.09,19.09,0,1,1-22.55-30.5l1.36-.79V53.64a8.18,8.18,0,1,1,16.36,0v64.49l1.36.79a19.17,19.17,0,0,1,9.55,16.53A18.89,18.89,0,0,1,148,149.42Z"/><circle class="cls-3" cx="134.98" cy="135.45" r="8.18"/><path class="cls-2" d="M137.71,122.09V83.64h-5.46v38.45a13.63,13.63,0,1,0,5.46,0ZM135,143.64a8.19,8.19,0,1,1,8.18-8.19A8.19,8.19,0,0,1,135,143.64Z"/><path class="cls-2" d="M108.07,73.9l1.41-5.27-8.54-2.29,8.47-4.89-2.73-4.72-8.47,4.89,2.29-8.54-5.27-1.42-3.7,13.82L80.29,72a8.21,8.21,0,0,0-2.58-1.49v-13L87.82,47.38,84,43.53l-6.25,6.25V40H72.25v9.78L66,43.53l-3.86,3.85L72.25,57.49v13A8.1,8.1,0,0,0,69.67,72L58.43,65.48l-3.7-13.82-5.27,1.42,2.29,8.54-8.47-4.89-2.73,4.72L49,66.34l-8.54,2.29,1.41,5.27L55.7,70.2l11.24,6.49a8,8,0,0,0,0,3L55.7,86.16l-13.81-3.7-1.41,5.27L49,90l-8.47,4.89,2.73,4.72,8.47-4.89-2.29,8.55,5.27,1.41,3.7-13.81L69.67,84.4a8.29,8.29,0,0,0,2.58,1.49v13L62.14,109,66,112.84l6.25-6.26v9.78h5.46v-9.78L84,112.84,87.82,109,77.71,98.87v-13a8.41,8.41,0,0,0,2.58-1.49l11.24,6.49,3.7,13.81,5.27-1.41-2.29-8.55,8.47,4.89,2.73-4.72L100.94,90l8.54-2.29-1.41-5.27-13.81,3.7L83,79.67a8,8,0,0,0,0-3L94.26,70.2ZM75,80.91a2.73,2.73,0,1,1,2.73-2.73A2.73,2.73,0,0,1,75,80.91Z"/><circle class="cls-3" cx="74.98" cy="78.18" r="2.73"/></svg>