<?xml version="1.0" encoding="utf-8"?>
<!-- Generator: Adobe Illustrator 23.0.4, SVG Export Plug-In . SVG Version: 6.00 Build 0)  -->
<svg version="1.1" id="Iconos" xmlns="http://www.w3.org/2000/svg" xmlns:xlink="http://www.w3.org/1999/xlink" x="0px" y="0px"
	 viewBox="0 0 119.1 120" style="enable-background:new 0 0 119.1 120;" xml:space="preserve">
<style type="text/css">
	.st0{fill:#D3ECFB;}
	.st1{fill:#175774;}
	.st2{fill:#FFFFFF;}
</style>
<title>Mesa de trabajo 8</title>
<path class="st0" d="M104.1,78.9l-1.4-0.8V13.6c0-4.5-3.7-8.2-8.2-8.2c-4.5,0-8.2,3.7-8.2,8.2c0,0,0,0,0,0v64.5L85,78.9
	c-9.1,5.3-12.3,16.9-7,26.1c5.3,9.1,16.9,12.3,26.1,7c9.1-5.3,12.3-16.9,7-26.1C109.4,83,107,80.6,104.1,78.9L104.1,78.9z
	 M94.5,109.1c-7.5,0-13.6-6.1-13.6-13.7c0-6.5,4.6-12,10.9-13.3V43.6h5.4v38.4c7.4,1.5,12.1,8.7,10.6,16.1
	C106.5,104.5,101,109.1,94.5,109.1z"/>
<path class="st1" d="M108.1,75V13.6c0.2-7.5-5.7-13.8-13.3-14s-13.8,5.7-14,13.3c0,0.2,0,0.5,0,0.7V75c-11.3,7.5-14.3,22.8-6.8,34
	c4.2,6.3,11.1,10.3,18.6,10.9c0.6,0,1.2,0.1,1.8,0.1c6.2,0,12.2-2.3,16.7-6.6c9.9-9.2,10.5-24.8,1.2-34.7
	C111.2,77.3,109.7,76.1,108.1,75z M107.5,109.4c-7.7,7.2-19.8,6.9-27-0.8c-7.2-7.7-6.9-19.8,0.8-27c1.1-1,2.3-2,3.7-2.7l1.4-0.8
	V13.6c0-4.5,3.7-8.2,8.2-8.2c4.5,0,8.2,3.7,8.2,8.2c0,0,0,0,0,0v64.5l1.4,0.8c5.9,3.4,9.5,9.7,9.5,16.5
	C113.6,100.8,111.4,105.8,107.5,109.4z"/>
<circle class="st2" cx="94.5" cy="95.4" r="8.2"/>
<path class="st1" d="M97.2,82.1V43.6h-5.5v38.4c-7.4,1.5-12.1,8.7-10.6,16.1s8.7,12.1,16.1,10.6s12.1-8.7,10.6-16.1
	C106.8,87.4,102.6,83.2,97.2,82.1z M94.5,103.6c-4.5,0-8.2-3.7-8.2-8.2c0-4.5,3.7-8.2,8.2-8.2s8.2,3.7,8.2,8.2c0,0,0,0,0,0
	C102.7,100,99,103.6,94.5,103.6z"/>
<path class="st1" d="M67.6,33.9l1.4-5.3l-8.5-2.3l8.5-4.9l-2.7-4.7l-8.5,4.9l2.3-8.5l-5.3-1.4L51,25.5L39.8,32
	c-0.8-0.7-1.6-1.2-2.6-1.5v-13L47.3,7.4l-3.9-3.9l-6.2,6.2V0h-5.4v9.8l-6.3-6.2l-3.9,3.9l10.1,10.1v13c-0.9,0.3-1.8,0.9-2.6,1.5
	L18,25.5l-3.7-13.8L9,13.1l2.3,8.5l-8.5-4.9l-2.7,4.7l8.5,4.9L0,28.6l1.4,5.3l13.8-3.7l11.2,6.5c-0.2,1-0.2,2,0,3l-11.2,6.5
	L1.4,42.5L0,47.7L8.5,50l-8.5,4.9l2.7,4.7l8.5-4.9L9,63.3l5.3,1.4L18,50.9l11.2-6.5c0.8,0.6,1.6,1.2,2.6,1.5v13L21.7,69l3.9,3.9
	l6.3-6.3v9.8h5.4v-9.8l6.2,6.3l3.9-3.8L37.2,58.9v-13c0.9-0.3,1.8-0.8,2.6-1.5l11.2,6.5l3.7,13.8l5.2-1.4l-2.3-8.5l8.5,4.9l2.7-4.7
	L60.5,50l8.5-2.3l-1.4-5.3l-13.8,3.7l-11.2-6.5c0.2-1,0.2-2,0-3l11.2-6.5L67.6,33.9z M34.5,40.9c-1.5,0-2.7-1.2-2.7-2.7
	c0-1.5,1.2-2.7,2.7-2.7c1.5,0,2.7,1.2,2.7,2.7l0,0C37.2,39.7,36,40.9,34.5,40.9C34.5,40.9,34.5,40.9,34.5,40.9L34.5,40.9z"/>
<circle class="st1" cx="34.5" cy="38.2" r="2.7"/>
</svg>
